<svg width="30" height="30" viewBox="0 0 30 30" fill="none" xmlns="http://www.w3.org/2000/svg">
<path fill-rule="evenodd" clip-rule="evenodd" d="M18.6213 3.55263C19.1388 3.55263 19.5588 3.97263 19.5588 4.49013C19.5588 5.00763 19.1388 5.42762 18.6213 5.42762H9.53625C6.40125 5.42762 4.375 7.58262 4.375 10.9201V21.0226C4.375 24.4039 6.3525 26.5039 9.53625 26.5039H20.2913C23.4263 26.5039 25.4525 24.3526 25.4525 21.0226V12.2239C25.4525 11.7064 25.8725 11.2864 26.39 11.2864C26.9075 11.2864 27.3275 11.7064 27.3275 12.2239V21.0226C27.3275 25.4226 24.5 28.3789 20.2913 28.3789H9.53625C5.3275 28.3789 2.5 25.4226 2.5 21.0226V10.9201C2.5 6.51388 5.3275 3.55263 9.53625 3.55263H18.6213ZM21.2655 12.0899C21.6755 12.4074 21.7505 12.9961 21.433 13.4049L17.7705 18.1299C17.618 18.3274 17.393 18.4561 17.1455 18.4861C16.8955 18.5199 16.648 18.4474 16.4505 18.2936L12.928 15.5261L9.76425 19.6374C9.57925 19.8774 9.30175 20.0036 9.0205 20.0036C8.8205 20.0036 8.61925 19.9399 8.44925 19.8099C8.03925 19.4936 7.96175 18.9049 8.278 18.4949L12.0193 13.6324C12.1718 13.4336 12.398 13.3049 12.6455 13.2736C12.898 13.2411 13.1455 13.3111 13.3418 13.4674L16.8668 16.2361L19.9505 12.2574C20.268 11.8461 20.8555 11.7699 21.2655 12.0899ZM24.9593 2.5C26.8018 2.5 28.2993 3.9975 28.2993 5.84C28.2993 7.6825 26.8018 9.18125 24.9593 9.18125C23.118 9.18125 21.6193 7.6825 21.6193 5.84C21.6193 3.9975 23.118 2.5 24.9593 2.5ZM24.9593 4.375C24.1518 4.375 23.4943 5.03125 23.4943 5.84C23.4943 6.6475 24.1518 7.30625 24.9593 7.30625C25.7668 7.30625 26.4242 6.6475 26.4242 5.84C26.4242 5.03125 25.7668 4.375 24.9593 4.375Z" fill="url(#paint0_linear_745_642)"/>
<defs>
<linearGradient id="paint0_linear_745_642" x1="2.5" y1="15.4394" x2="28.2993" y2="15.4394" gradientUnits="userSpaceOnUse">
<stop stop-color="#02AAB0"/>
<stop offset="1" stop-color="#00CDAC"/>
</linearGradient>
</defs>
</svg>
