<svg width="30" height="30" viewBox="0 0 30 30" fill="none" xmlns="http://www.w3.org/2000/svg">
<path fill-rule="evenodd" clip-rule="evenodd" d="M6.92949 24.706C7.82199 24.706 8.54824 25.4242 8.54824 26.3084C8.54824 27.1925 7.82199 27.9119 6.92949 27.9119C6.03699 27.9119 5.31199 27.1925 5.31199 26.3084C5.31199 25.4242 6.03699 24.706 6.92949 24.706ZM21.0299 24.706C21.9236 24.706 22.6499 25.4242 22.6499 26.3084C22.6499 27.1925 21.9236 27.9119 21.0299 27.9119C20.1374 27.9119 19.4124 27.1925 19.4124 26.3084C19.4124 25.4242 20.1374 24.706 21.0299 24.706ZM1.58474 3.72659L4.18474 4.17237C4.60349 4.24543 4.92224 4.58967 4.95849 5.01069L5.25224 8.47911L6.34455 8.47958C6.52279 8.47965 6.69915 8.47973 6.87364 8.47981L8.87902 8.48075C9.03887 8.48083 9.19693 8.48091 9.35322 8.48099L11.5675 8.4822C11.7066 8.48228 11.844 8.48236 11.9798 8.48244L13.5315 8.48342C13.6544 8.4835 13.7758 8.48358 13.8956 8.48367L15.2603 8.48466C15.3681 8.48475 15.4744 8.48483 15.5792 8.48491L16.7691 8.48593C16.8627 8.48601 16.955 8.4861 17.0458 8.48618L17.8279 8.48695C17.9109 8.48704 17.9926 8.48712 18.073 8.48721L18.9787 8.48825C19.0494 8.48834 19.1188 8.48843 19.1871 8.48851L19.9518 8.48957C20.0111 8.48966 20.0693 8.48975 20.1264 8.48984L20.6124 8.49064C20.6634 8.49073 20.7133 8.49082 20.7622 8.49091L21.3036 8.492C21.345 8.49209 21.3855 8.49218 21.4251 8.49227L21.7583 8.4931C21.7928 8.49319 21.8265 8.49328 21.8594 8.49337L22.2166 8.49449C22.2433 8.49458 22.2694 8.49468 22.2947 8.49477L22.5045 8.49562C22.5258 8.49571 22.5465 8.49581 22.5665 8.4959L22.7787 8.49705C22.7941 8.49714 22.8089 8.49724 22.8233 8.49734L22.9389 8.49821C22.9503 8.4983 22.9613 8.4984 22.9718 8.4985L23.055 8.49938C23.0631 8.49947 23.0707 8.49957 23.0781 8.49967L23.1347 8.50056C23.14 8.50066 23.1451 8.50076 23.1498 8.50086L23.1857 8.50176C23.1889 8.50186 23.192 8.50196 23.1948 8.50206L23.2208 8.50327C23.2224 8.50337 23.2239 8.50347 23.2252 8.50357C23.2374 8.5047 23.2392 8.50491 23.241 8.50511C23.9372 8.60541 24.5497 8.96575 24.9672 9.5205C25.3847 10.074 25.5597 10.7563 25.4597 11.4398L24.2735 19.5605C24.0497 21.1058 22.6947 22.2711 21.1197 22.2711H7.46849C5.82224 22.2711 4.42849 20.9981 4.29474 19.3698L3.14974 5.87996L1.26599 5.55801C0.754736 5.46885 0.413486 4.98964 0.500986 4.48318C0.590986 3.97672 1.08474 3.64734 1.58474 3.72659ZM6.09378 10.337L5.40974 10.3365L6.16349 19.2175C6.21849 19.901 6.78224 20.4136 7.47099 20.4136H21.1172C21.7685 20.4136 22.3247 19.9332 22.4172 19.2955L23.6047 11.1736C23.6322 10.9804 23.5835 10.7873 23.4647 10.6312C23.3472 10.474 23.1747 10.3724 22.9797 10.3452C22.9707 10.3455 22.9491 10.3459 22.9156 10.3461L22.7796 10.3469C22.7512 10.347 22.7199 10.3471 22.6859 10.3472L21.9777 10.3483C21.918 10.3483 21.8559 10.3484 21.7914 10.3484L20.1265 10.3483C20.0336 10.3483 19.9389 10.3483 19.8426 10.3482L17.9424 10.3471C17.8286 10.347 17.7135 10.3469 17.5973 10.3468L16.5221 10.346C16.3996 10.3459 16.2762 10.3458 16.152 10.3457L15.0132 10.3447C14.8845 10.3446 14.7553 10.3444 14.6255 10.3443L13.8411 10.3436C13.7094 10.3435 13.5774 10.3434 13.4451 10.3432L12.248 10.3421C12.1145 10.342 11.9809 10.3419 11.8474 10.3418L11.0466 10.341C10.9133 10.3409 10.7802 10.3408 10.6473 10.3407L9.85328 10.3399C9.7216 10.3398 9.59031 10.3397 9.45947 10.3396L8.29633 10.3386C8.16893 10.3385 8.04221 10.3384 7.91625 10.3383L6.44635 10.3372C6.32773 10.3371 6.21018 10.337 6.09378 10.337ZM19.1096 13.0562C19.6271 13.0562 20.0471 13.4722 20.0471 13.9849C20.0471 14.4975 19.6271 14.9136 19.1096 14.9136H15.6446C15.1259 14.9136 14.7071 14.4975 14.7071 13.9849C14.7071 13.4722 15.1259 13.0562 15.6446 13.0562H19.1096Z" fill="url(#paint0_linear_745_644)"/>
<defs>
<linearGradient id="paint0_linear_745_644" x1="0.487305" y1="15.8134" x2="25.4872" y2="15.8134" gradientUnits="userSpaceOnUse">
<stop stop-color="#02AAB0"/>
<stop offset="1" stop-color="#00CDAC"/>
</linearGradient>
</defs>
</svg>
