<svg width="100" height="82" viewBox="0 0 100 82" fill="none" xmlns="http://www.w3.org/2000/svg">
<rect x="32" y="23" width="36" height="36" rx="2" fill="url(#paint0_linear_745_1160)"/>
<g filter="url(#filter0_bi_745_1160)">
<path d="M36.3636 9.11111C38.874 9.11111 40.9091 7.07152 40.9091 4.55556C40.9091 2.03959 38.874 0 36.3636 0H27.2727C17.2312 0 9.09091 8.15837 9.09091 18.2222V27.3333C9.09091 29.8493 11.126 31.8889 13.6364 31.8889C16.1467 31.8889 18.1818 29.8493 18.1818 27.3333V18.2222C18.1818 13.1903 22.252 9.11111 27.2727 9.11111H36.3636Z" fill="#F1F1F1" fill-opacity="0.1"/>
<path d="M36.3636 9.11111C38.874 9.11111 40.9091 7.07152 40.9091 4.55556C40.9091 2.03959 38.874 0 36.3636 0H27.2727C17.2312 0 9.09091 8.15837 9.09091 18.2222V27.3333C9.09091 29.8493 11.126 31.8889 13.6364 31.8889C16.1467 31.8889 18.1818 29.8493 18.1818 27.3333V18.2222C18.1818 13.1903 22.252 9.11111 27.2727 9.11111H36.3636Z" fill="url(#paint1_linear_745_1160)" fill-opacity="0.2"/>
<path d="M18.1818 63.7778V50.1111H81.8182V63.7778C81.8182 68.8097 77.748 72.8889 72.7273 72.8889H63.6364C61.126 72.8889 59.0909 74.9285 59.0909 77.4444C59.0909 79.9604 61.126 82 63.6364 82H72.7273C82.7688 82 90.9091 73.8416 90.9091 63.7778V50.1111H95.4545C97.9649 50.1111 100 48.0715 100 45.5556C100 43.0396 97.9649 41 95.4545 41H4.54545C2.03507 41 0 43.0396 0 45.5556C0 48.0715 2.03507 50.1111 4.54546 50.1111H9.09091V63.7778C9.09091 73.8416 17.2312 82 27.2727 82H36.3636C38.874 82 40.9091 79.9604 40.9091 77.4444C40.9091 74.9285 38.874 72.8889 36.3636 72.8889H27.2727C22.252 72.8889 18.1818 68.8097 18.1818 63.7778Z" fill="#F1F1F1" fill-opacity="0.1"/>
<path d="M18.1818 63.7778V50.1111H81.8182V63.7778C81.8182 68.8097 77.748 72.8889 72.7273 72.8889H63.6364C61.126 72.8889 59.0909 74.9285 59.0909 77.4444C59.0909 79.9604 61.126 82 63.6364 82H72.7273C82.7688 82 90.9091 73.8416 90.9091 63.7778V50.1111H95.4545C97.9649 50.1111 100 48.0715 100 45.5556C100 43.0396 97.9649 41 95.4545 41H4.54545C2.03507 41 0 43.0396 0 45.5556C0 48.0715 2.03507 50.1111 4.54546 50.1111H9.09091V63.7778C9.09091 73.8416 17.2312 82 27.2727 82H36.3636C38.874 82 40.9091 79.9604 40.9091 77.4444C40.9091 74.9285 38.874 72.8889 36.3636 72.8889H27.2727C22.252 72.8889 18.1818 68.8097 18.1818 63.7778Z" fill="url(#paint2_linear_745_1160)" fill-opacity="0.2"/>
<path d="M86.3636 31.8889C83.8533 31.8889 81.8182 29.8493 81.8182 27.3333V18.2222C81.8182 13.1903 77.748 9.11111 72.7273 9.11111H63.6364C61.126 9.11111 59.0909 7.07152 59.0909 4.55556C59.0909 2.03959 61.126 0 63.6364 0H72.7273C82.7688 0 90.9091 8.15837 90.9091 18.2222V27.3333C90.9091 29.8493 88.874 31.8889 86.3636 31.8889Z" fill="#F1F1F1" fill-opacity="0.1"/>
<path d="M86.3636 31.8889C83.8533 31.8889 81.8182 29.8493 81.8182 27.3333V18.2222C81.8182 13.1903 77.748 9.11111 72.7273 9.11111H63.6364C61.126 9.11111 59.0909 7.07152 59.0909 4.55556C59.0909 2.03959 61.126 0 63.6364 0H72.7273C82.7688 0 90.9091 8.15837 90.9091 18.2222V27.3333C90.9091 29.8493 88.874 31.8889 86.3636 31.8889Z" fill="url(#paint3_linear_745_1160)" fill-opacity="0.2"/>
<path d="M18.1818 50.0111H18.0818V50.1111V63.7778C18.0818 68.8647 22.1965 72.9889 27.2727 72.9889H36.3636C38.8186 72.9889 40.8091 74.9835 40.8091 77.4444C40.8091 79.9054 38.8186 81.9 36.3636 81.9H27.2727C17.2866 81.9 9.19091 73.7866 9.19091 63.7778V50.1111V50.0111H9.09091H4.54546C2.09051 50.0111 0.1 48.0165 0.1 45.5556C0.1 43.0946 2.09051 41.1 4.54545 41.1H95.4545C97.9095 41.1 99.9 43.0946 99.9 45.5556C99.9 48.0165 97.9095 50.0111 95.4545 50.0111H90.9091H90.8091V50.1111V63.7778C90.8091 73.7866 82.7134 81.9 72.7273 81.9H63.6364C61.1814 81.9 59.1909 79.9054 59.1909 77.4444C59.1909 74.9835 61.1814 72.9889 63.6364 72.9889H72.7273C77.8035 72.9889 81.9182 68.8647 81.9182 63.7778V50.1111V50.0111H81.8182H18.1818ZM40.8091 4.55556C40.8091 7.0165 38.8186 9.01111 36.3636 9.01111H27.2727C22.1965 9.01111 18.0818 13.1353 18.0818 18.2222V27.3333C18.0818 29.7943 16.0913 31.7889 13.6364 31.7889C11.1814 31.7889 9.19091 29.7943 9.19091 27.3333V18.2222C9.19091 8.21339 17.2866 0.1 27.2727 0.1H36.3636C38.8186 0.1 40.8091 2.09461 40.8091 4.55556ZM86.3636 31.7889C83.9087 31.7889 81.9182 29.7943 81.9182 27.3333V18.2222C81.9182 13.1353 77.8035 9.01111 72.7273 9.01111H63.6364C61.1814 9.01111 59.1909 7.0165 59.1909 4.55556C59.1909 2.09461 61.1814 0.1 63.6364 0.1H72.7273C82.7134 0.1 90.8091 8.21339 90.8091 18.2222V27.3333C90.8091 29.7943 88.8186 31.7889 86.3636 31.7889Z" stroke="url(#paint4_linear_745_1160)" stroke-opacity="0.1" stroke-width="0.2"/>
</g>
<defs>
<filter id="filter0_bi_745_1160" x="-3" y="-3" width="106" height="88" filterUnits="userSpaceOnUse" color-interpolation-filters="sRGB">
<feFlood flood-opacity="0" result="BackgroundImageFix"/>
<feGaussianBlur in="BackgroundImageFix" stdDeviation="1.5"/>
<feComposite in2="SourceAlpha" operator="in" result="effect1_backgroundBlur_745_1160"/>
<feBlend mode="normal" in="SourceGraphic" in2="effect1_backgroundBlur_745_1160" result="shape"/>
<feColorMatrix in="SourceAlpha" type="matrix" values="0 0 0 0 0 0 0 0 0 0 0 0 0 0 0 0 0 0 127 0" result="hardAlpha"/>
<feOffset dy="0.5"/>
<feGaussianBlur stdDeviation="1"/>
<feComposite in2="hardAlpha" operator="arithmetic" k2="-1" k3="1"/>
<feColorMatrix type="matrix" values="0 0 0 0 1 0 0 0 0 1 0 0 0 0 1 0 0 0 0.4 0"/>
<feBlend mode="normal" in2="shape" result="effect2_innerShadow_745_1160"/>
</filter>
<linearGradient id="paint0_linear_745_1160" x1="33.5" y1="30.2" x2="72.743" y2="35.6504" gradientUnits="userSpaceOnUse">
<stop stop-color="#A314D5"/>
<stop offset="1" stop-color="#EC008C"/>
</linearGradient>
<linearGradient id="paint1_linear_745_1160" x1="4.16667" y1="16.4" x2="112.179" y2="34.6948" gradientUnits="userSpaceOnUse">
<stop stop-color="#FE82DB"/>
<stop offset="1" stop-color="#68E4FF"/>
</linearGradient>
<linearGradient id="paint2_linear_745_1160" x1="4.16667" y1="16.4" x2="112.179" y2="34.6948" gradientUnits="userSpaceOnUse">
<stop stop-color="#FE82DB"/>
<stop offset="1" stop-color="#68E4FF"/>
</linearGradient>
<linearGradient id="paint3_linear_745_1160" x1="4.16667" y1="16.4" x2="112.179" y2="34.6948" gradientUnits="userSpaceOnUse">
<stop stop-color="#FE82DB"/>
<stop offset="1" stop-color="#68E4FF"/>
</linearGradient>
<linearGradient id="paint4_linear_745_1160" x1="3.125" y1="3.72727" x2="100" y2="3.72727" gradientUnits="userSpaceOnUse">
<stop stop-color="#FD84DC"/>
<stop offset="1" stop-color="#7FD6FA"/>
</linearGradient>
</defs>
</svg>
