<svg width="92" height="92" viewBox="0 0 92 92" fill="none" xmlns="http://www.w3.org/2000/svg">
<circle cx="46" cy="46" r="31" fill="url(#paint0_linear_753_1165)"/>
<g filter="url(#filter0_bi_753_1165)">
<path d="M0 4.84211C0 2.16788 2.16788 0 4.84211 0H19.3684C22.0426 0 24.2105 2.16788 24.2105 4.84211V19.3684C24.2105 22.0426 22.0426 24.2105 19.3684 24.2105H4.84211C2.16788 24.2105 0 22.0426 0 19.3684V4.84211Z" fill="#F1F1F1" fill-opacity="0.1"/>
<path d="M0 4.84211C0 2.16788 2.16788 0 4.84211 0H19.3684C22.0426 0 24.2105 2.16788 24.2105 4.84211V19.3684C24.2105 22.0426 22.0426 24.2105 19.3684 24.2105H4.84211C2.16788 24.2105 0 22.0426 0 19.3684V4.84211Z" fill="url(#paint1_linear_753_1165)" fill-opacity="0.2"/>
<path d="M0 38.7368C0 36.0626 2.16788 33.8947 4.84211 33.8947H19.3684C22.0426 33.8947 24.2105 36.0626 24.2105 38.7368V53.2632C24.2105 55.9374 22.0426 58.1053 19.3684 58.1053H4.84211C2.16788 58.1053 0 55.9374 0 53.2632V38.7368Z" fill="#F1F1F1" fill-opacity="0.1"/>
<path d="M0 38.7368C0 36.0626 2.16788 33.8947 4.84211 33.8947H19.3684C22.0426 33.8947 24.2105 36.0626 24.2105 38.7368V53.2632C24.2105 55.9374 22.0426 58.1053 19.3684 58.1053H4.84211C2.16788 58.1053 0 55.9374 0 53.2632V38.7368Z" fill="url(#paint2_linear_753_1165)" fill-opacity="0.2"/>
<path d="M0 72.6316C0 69.9574 2.16788 67.7895 4.84211 67.7895H19.3684C22.0426 67.7895 24.2105 69.9574 24.2105 72.6316V87.1579C24.2105 89.8321 22.0426 92 19.3684 92H4.84211C2.16788 92 0 89.8321 0 87.1579V72.6316Z" fill="#F1F1F1" fill-opacity="0.1"/>
<path d="M0 72.6316C0 69.9574 2.16788 67.7895 4.84211 67.7895H19.3684C22.0426 67.7895 24.2105 69.9574 24.2105 72.6316V87.1579C24.2105 89.8321 22.0426 92 19.3684 92H4.84211C2.16788 92 0 89.8321 0 87.1579V72.6316Z" fill="url(#paint3_linear_753_1165)" fill-opacity="0.2"/>
<path d="M33.8947 4.84211C33.8947 2.16788 36.0626 0 38.7368 0H53.2632C55.9374 0 58.1053 2.16788 58.1053 4.84211V19.3684C58.1053 22.0426 55.9374 24.2105 53.2632 24.2105H38.7368C36.0626 24.2105 33.8947 22.0426 33.8947 19.3684V4.84211Z" fill="#F1F1F1" fill-opacity="0.1"/>
<path d="M33.8947 4.84211C33.8947 2.16788 36.0626 0 38.7368 0H53.2632C55.9374 0 58.1053 2.16788 58.1053 4.84211V19.3684C58.1053 22.0426 55.9374 24.2105 53.2632 24.2105H38.7368C36.0626 24.2105 33.8947 22.0426 33.8947 19.3684V4.84211Z" fill="url(#paint4_linear_753_1165)" fill-opacity="0.2"/>
<path d="M33.8947 38.7368C33.8947 36.0626 36.0626 33.8947 38.7368 33.8947H53.2632C55.9374 33.8947 58.1053 36.0626 58.1053 38.7368V53.2632C58.1053 55.9374 55.9374 58.1053 53.2632 58.1053H38.7368C36.0626 58.1053 33.8947 55.9374 33.8947 53.2632V38.7368Z" fill="#F1F1F1" fill-opacity="0.1"/>
<path d="M33.8947 38.7368C33.8947 36.0626 36.0626 33.8947 38.7368 33.8947H53.2632C55.9374 33.8947 58.1053 36.0626 58.1053 38.7368V53.2632C58.1053 55.9374 55.9374 58.1053 53.2632 58.1053H38.7368C36.0626 58.1053 33.8947 55.9374 33.8947 53.2632V38.7368Z" fill="url(#paint5_linear_753_1165)" fill-opacity="0.2"/>
<path d="M33.8947 72.6316C33.8947 69.9574 36.0626 67.7895 38.7368 67.7895H53.2632C55.9374 67.7895 58.1053 69.9574 58.1053 72.6316V87.1579C58.1053 89.8321 55.9374 92 53.2632 92H38.7368C36.0626 92 33.8947 89.8321 33.8947 87.1579V72.6316Z" fill="#F1F1F1" fill-opacity="0.1"/>
<path d="M33.8947 72.6316C33.8947 69.9574 36.0626 67.7895 38.7368 67.7895H53.2632C55.9374 67.7895 58.1053 69.9574 58.1053 72.6316V87.1579C58.1053 89.8321 55.9374 92 53.2632 92H38.7368C36.0626 92 33.8947 89.8321 33.8947 87.1579V72.6316Z" fill="url(#paint6_linear_753_1165)" fill-opacity="0.2"/>
<path d="M67.7895 4.84211C67.7895 2.16788 69.9574 0 72.6316 0H87.1579C89.8321 0 92 2.16788 92 4.84211V19.3684C92 22.0426 89.8321 24.2105 87.1579 24.2105H72.6316C69.9574 24.2105 67.7895 22.0426 67.7895 19.3684V4.84211Z" fill="#F1F1F1" fill-opacity="0.1"/>
<path d="M67.7895 4.84211C67.7895 2.16788 69.9574 0 72.6316 0H87.1579C89.8321 0 92 2.16788 92 4.84211V19.3684C92 22.0426 89.8321 24.2105 87.1579 24.2105H72.6316C69.9574 24.2105 67.7895 22.0426 67.7895 19.3684V4.84211Z" fill="url(#paint7_linear_753_1165)" fill-opacity="0.2"/>
<path d="M67.7895 38.7368C67.7895 36.0626 69.9574 33.8947 72.6316 33.8947H87.1579C89.8321 33.8947 92 36.0626 92 38.7368V53.2632C92 55.9374 89.8321 58.1053 87.1579 58.1053H72.6316C69.9574 58.1053 67.7895 55.9374 67.7895 53.2632V38.7368Z" fill="#F1F1F1" fill-opacity="0.1"/>
<path d="M67.7895 38.7368C67.7895 36.0626 69.9574 33.8947 72.6316 33.8947H87.1579C89.8321 33.8947 92 36.0626 92 38.7368V53.2632C92 55.9374 89.8321 58.1053 87.1579 58.1053H72.6316C69.9574 58.1053 67.7895 55.9374 67.7895 53.2632V38.7368Z" fill="url(#paint8_linear_753_1165)" fill-opacity="0.2"/>
<path d="M67.7895 72.6316C67.7895 69.9574 69.9574 67.7895 72.6316 67.7895H87.1579C89.8321 67.7895 92 69.9574 92 72.6316V87.1579C92 89.8321 89.8321 92 87.1579 92H72.6316C69.9574 92 67.7895 89.8321 67.7895 87.1579V72.6316Z" fill="#F1F1F1" fill-opacity="0.1"/>
<path d="M67.7895 72.6316C67.7895 69.9574 69.9574 67.7895 72.6316 67.7895H87.1579C89.8321 67.7895 92 69.9574 92 72.6316V87.1579C92 89.8321 89.8321 92 87.1579 92H72.6316C69.9574 92 67.7895 89.8321 67.7895 87.1579V72.6316Z" fill="url(#paint9_linear_753_1165)" fill-opacity="0.2"/>
<path d="M4.84211 0.1H19.3684C21.9874 0.1 24.1105 2.22311 24.1105 4.84211V19.3684C24.1105 21.9874 21.9874 24.1105 19.3684 24.1105H4.8421C2.22311 24.1105 0.1 21.9874 0.1 19.3684V4.8421C0.1 2.22311 2.22311 0.1 4.84211 0.1ZM4.84211 33.9947H19.3684C21.9874 33.9947 24.1105 36.1179 24.1105 38.7368V53.2632C24.1105 55.8822 21.9874 58.0053 19.3684 58.0053H4.8421C2.22311 58.0053 0.1 55.8822 0.1 53.2632V38.7368C0.1 36.1179 2.22311 33.9947 4.84211 33.9947ZM4.84211 67.8895H19.3684C21.9874 67.8895 24.1105 70.0126 24.1105 72.6316V87.1579C24.1105 89.7769 21.9874 91.9 19.3684 91.9H4.8421C2.22311 91.9 0.1 89.7769 0.1 87.1579V72.6316C0.1 70.0126 2.22311 67.8895 4.84211 67.8895ZM38.7368 0.1H53.2632C55.8822 0.1 58.0053 2.22311 58.0053 4.84211V19.3684C58.0053 21.9874 55.8822 24.1105 53.2632 24.1105H38.7368C36.1179 24.1105 33.9947 21.9874 33.9947 19.3684V4.8421C33.9947 2.22311 36.1179 0.1 38.7368 0.1ZM38.7368 33.9947H53.2632C55.8822 33.9947 58.0053 36.1179 58.0053 38.7368V53.2632C58.0053 55.8822 55.8822 58.0053 53.2632 58.0053H38.7368C36.1179 58.0053 33.9947 55.8822 33.9947 53.2632V38.7368C33.9947 36.1179 36.1179 33.9947 38.7368 33.9947ZM38.7368 67.8895H53.2632C55.8822 67.8895 58.0053 70.0126 58.0053 72.6316V87.1579C58.0053 89.7769 55.8822 91.9 53.2632 91.9H38.7368C36.1179 91.9 33.9947 89.7769 33.9947 87.1579V72.6316C33.9947 70.0126 36.1179 67.8895 38.7368 67.8895ZM72.6316 0.1H87.1579C89.7769 0.1 91.9 2.22311 91.9 4.84211V19.3684C91.9 21.9874 89.7769 24.1105 87.1579 24.1105H72.6316C70.0126 24.1105 67.8895 21.9874 67.8895 19.3684V4.8421C67.8895 2.22311 70.0126 0.1 72.6316 0.1ZM72.6316 33.9947H87.1579C89.7769 33.9947 91.9 36.1179 91.9 38.7368V53.2632C91.9 55.8822 89.7769 58.0053 87.1579 58.0053H72.6316C70.0126 58.0053 67.8895 55.8822 67.8895 53.2632V38.7368C67.8895 36.1179 70.0126 33.9947 72.6316 33.9947ZM72.6316 67.8895H87.1579C89.7769 67.8895 91.9 70.0126 91.9 72.6316V87.1579C91.9 89.7769 89.7769 91.9 87.1579 91.9H72.6316C70.0126 91.9 67.8895 89.7769 67.8895 87.1579V72.6316C67.8895 70.0126 70.0126 67.8895 72.6316 67.8895Z" stroke="url(#paint10_linear_753_1165)" stroke-opacity="0.1" stroke-width="0.2"/>
</g>
<defs>
<filter id="filter0_bi_753_1165" x="-3" y="-3" width="98" height="98" filterUnits="userSpaceOnUse" color-interpolation-filters="sRGB">
<feFlood flood-opacity="0" result="BackgroundImageFix"/>
<feGaussianBlur in="BackgroundImageFix" stdDeviation="1.5"/>
<feComposite in2="SourceAlpha" operator="in" result="effect1_backgroundBlur_753_1165"/>
<feBlend mode="normal" in="SourceGraphic" in2="effect1_backgroundBlur_753_1165" result="shape"/>
<feColorMatrix in="SourceAlpha" type="matrix" values="0 0 0 0 0 0 0 0 0 0 0 0 0 0 0 0 0 0 127 0" result="hardAlpha"/>
<feOffset dy="0.5"/>
<feGaussianBlur stdDeviation="1"/>
<feComposite in2="hardAlpha" operator="arithmetic" k2="-1" k3="1"/>
<feColorMatrix type="matrix" values="0 0 0 0 1 0 0 0 0 1 0 0 0 0 1 0 0 0 0.4 0"/>
<feBlend mode="normal" in2="shape" result="effect2_innerShadow_753_1165"/>
</filter>
<linearGradient id="paint0_linear_753_1165" x1="17.5833" y1="27.4" x2="85.1685" y2="36.7868" gradientUnits="userSpaceOnUse">
<stop stop-color="#00CDAC"/>
<stop offset="1" stop-color="#68E4FF"/>
</linearGradient>
<linearGradient id="paint1_linear_753_1165" x1="3.83333" y1="18.4" x2="104.121" y2="32.3289" gradientUnits="userSpaceOnUse">
<stop stop-color="#FE82DB"/>
<stop offset="1" stop-color="#68E4FF"/>
</linearGradient>
<linearGradient id="paint2_linear_753_1165" x1="3.83333" y1="18.4" x2="104.121" y2="32.3289" gradientUnits="userSpaceOnUse">
<stop stop-color="#FE82DB"/>
<stop offset="1" stop-color="#68E4FF"/>
</linearGradient>
<linearGradient id="paint3_linear_753_1165" x1="3.83333" y1="18.4" x2="104.121" y2="32.3289" gradientUnits="userSpaceOnUse">
<stop stop-color="#FE82DB"/>
<stop offset="1" stop-color="#68E4FF"/>
</linearGradient>
<linearGradient id="paint4_linear_753_1165" x1="3.83333" y1="18.4" x2="104.121" y2="32.3289" gradientUnits="userSpaceOnUse">
<stop stop-color="#FE82DB"/>
<stop offset="1" stop-color="#68E4FF"/>
</linearGradient>
<linearGradient id="paint5_linear_753_1165" x1="3.83333" y1="18.4" x2="104.121" y2="32.3289" gradientUnits="userSpaceOnUse">
<stop stop-color="#FE82DB"/>
<stop offset="1" stop-color="#68E4FF"/>
</linearGradient>
<linearGradient id="paint6_linear_753_1165" x1="3.83333" y1="18.4" x2="104.121" y2="32.3289" gradientUnits="userSpaceOnUse">
<stop stop-color="#FE82DB"/>
<stop offset="1" stop-color="#68E4FF"/>
</linearGradient>
<linearGradient id="paint7_linear_753_1165" x1="3.83333" y1="18.4" x2="104.121" y2="32.3289" gradientUnits="userSpaceOnUse">
<stop stop-color="#FE82DB"/>
<stop offset="1" stop-color="#68E4FF"/>
</linearGradient>
<linearGradient id="paint8_linear_753_1165" x1="3.83333" y1="18.4" x2="104.121" y2="32.3289" gradientUnits="userSpaceOnUse">
<stop stop-color="#FE82DB"/>
<stop offset="1" stop-color="#68E4FF"/>
</linearGradient>
<linearGradient id="paint9_linear_753_1165" x1="3.83333" y1="18.4" x2="104.121" y2="32.3289" gradientUnits="userSpaceOnUse">
<stop stop-color="#FE82DB"/>
<stop offset="1" stop-color="#68E4FF"/>
</linearGradient>
<linearGradient id="paint10_linear_753_1165" x1="2.875" y1="4.18182" x2="92" y2="4.18182" gradientUnits="userSpaceOnUse">
<stop stop-color="#FD84DC"/>
<stop offset="1" stop-color="#7FD6FA"/>
</linearGradient>
</defs>
</svg>
