<svg width="91" height="91" viewBox="0 0 91 91" fill="none" xmlns="http://www.w3.org/2000/svg">
<circle cx="45.3477" cy="45.3467" r="27.5" fill="url(#paint0_linear_745_1161)"/>
<g filter="url(#filter0_bi_745_1161)">
<mask id="path-2-inside-1_745_1161" fill="white">
<path fill-rule="evenodd" clip-rule="evenodd" d="M76.9935 0.439339C76.4077 -0.146447 75.458 -0.146446 74.8722 0.43934L0.43934 74.8722C-0.146446 75.458 -0.146447 76.4077 0.43934 76.9935L13.6976 90.2518C14.2834 90.8376 15.2331 90.8376 15.8189 90.2518L90.2518 15.8189C90.8376 15.2331 90.8376 14.2834 90.2518 13.6976L76.9935 0.439339ZM34.4719 18.159C34.4719 27.1682 27.1686 34.4715 18.1594 34.4715C9.15029 34.4715 1.84694 27.1682 1.84694 18.159C1.84694 9.14988 9.15029 1.84653 18.1594 1.84653C27.1686 1.84653 34.4719 9.14988 34.4719 18.159ZM88.8469 72.534C88.8469 81.5432 81.5436 88.8465 72.5344 88.8465C63.5253 88.8465 56.2219 81.5432 56.2219 72.534C56.2219 63.5249 63.5253 56.2215 72.5344 56.2215C81.5436 56.2215 88.8469 63.5249 88.8469 72.534Z"/>
</mask>
<path fill-rule="evenodd" clip-rule="evenodd" d="M76.9935 0.439339C76.4077 -0.146447 75.458 -0.146446 74.8722 0.43934L0.43934 74.8722C-0.146446 75.458 -0.146447 76.4077 0.43934 76.9935L13.6976 90.2518C14.2834 90.8376 15.2331 90.8376 15.8189 90.2518L90.2518 15.8189C90.8376 15.2331 90.8376 14.2834 90.2518 13.6976L76.9935 0.439339ZM34.4719 18.159C34.4719 27.1682 27.1686 34.4715 18.1594 34.4715C9.15029 34.4715 1.84694 27.1682 1.84694 18.159C1.84694 9.14988 9.15029 1.84653 18.1594 1.84653C27.1686 1.84653 34.4719 9.14988 34.4719 18.159ZM88.8469 72.534C88.8469 81.5432 81.5436 88.8465 72.5344 88.8465C63.5253 88.8465 56.2219 81.5432 56.2219 72.534C56.2219 63.5249 63.5253 56.2215 72.5344 56.2215C81.5436 56.2215 88.8469 63.5249 88.8469 72.534Z" fill="#F1F1F1" fill-opacity="0.1"/>
<path fill-rule="evenodd" clip-rule="evenodd" d="M76.9935 0.439339C76.4077 -0.146447 75.458 -0.146446 74.8722 0.43934L0.43934 74.8722C-0.146446 75.458 -0.146447 76.4077 0.43934 76.9935L13.6976 90.2518C14.2834 90.8376 15.2331 90.8376 15.8189 90.2518L90.2518 15.8189C90.8376 15.2331 90.8376 14.2834 90.2518 13.6976L76.9935 0.439339ZM34.4719 18.159C34.4719 27.1682 27.1686 34.4715 18.1594 34.4715C9.15029 34.4715 1.84694 27.1682 1.84694 18.159C1.84694 9.14988 9.15029 1.84653 18.1594 1.84653C27.1686 1.84653 34.4719 9.14988 34.4719 18.159ZM88.8469 72.534C88.8469 81.5432 81.5436 88.8465 72.5344 88.8465C63.5253 88.8465 56.2219 81.5432 56.2219 72.534C56.2219 63.5249 63.5253 56.2215 72.5344 56.2215C81.5436 56.2215 88.8469 63.5249 88.8469 72.534Z" fill="url(#paint1_linear_745_1161)" fill-opacity="0.2"/>
<path d="M74.8722 0.43934L75.0136 0.580762V0.580762L74.8722 0.43934ZM76.9935 0.439339L76.8521 0.58076V0.580761L76.9935 0.439339ZM0.43934 74.8722L0.580761 75.0136H0.580761L0.43934 74.8722ZM0.43934 76.9935L0.580761 76.8521H0.580761L0.43934 76.9935ZM13.6976 90.2518L13.5562 90.3932L13.6976 90.2518ZM15.8189 90.2518L15.6775 90.1104H15.6775L15.8189 90.2518ZM90.2518 15.8189L90.1104 15.6775V15.6775L90.2518 15.8189ZM90.2518 13.6976L90.1104 13.839V13.839L90.2518 13.6976ZM75.0136 0.580762C75.5213 0.0730801 76.3444 0.0730793 76.8521 0.58076L77.135 0.297918C76.4711 -0.365974 75.3947 -0.365972 74.7308 0.297919L75.0136 0.580762ZM0.580761 75.0136L75.0136 0.580762L74.7308 0.297919L0.297919 74.7308L0.580761 75.0136ZM0.580761 76.8521C0.0730796 76.3444 0.0730798 75.5213 0.580761 75.0136L0.297919 74.7308C-0.365973 75.3947 -0.365973 76.4711 0.297918 77.1349L0.580761 76.8521ZM13.839 90.1104L0.580761 76.8521L0.297918 77.1349L13.5562 90.3932L13.839 90.1104ZM15.6775 90.1104C15.1698 90.618 14.3467 90.618 13.839 90.1104L13.5562 90.3932C14.2201 91.0571 15.2964 91.0571 15.9603 90.3932L15.6775 90.1104ZM90.1104 15.6775L15.6775 90.1104L15.9603 90.3932L90.3932 15.9603L90.1104 15.6775ZM90.1104 13.839C90.618 14.3467 90.618 15.1698 90.1104 15.6775L90.3932 15.9603C91.0571 15.2964 91.0571 14.2201 90.3932 13.5562L90.1104 13.839ZM76.8521 0.580761L90.1104 13.839L90.3932 13.5562L77.135 0.297918L76.8521 0.580761ZM18.1594 34.6715C27.279 34.6715 34.6719 27.2786 34.6719 18.159H34.2719C34.2719 27.0577 27.0581 34.2715 18.1594 34.2715V34.6715ZM1.64694 18.159C1.64694 27.2786 9.03983 34.6715 18.1594 34.6715V34.2715C9.26075 34.2715 2.04694 27.0577 2.04694 18.159H1.64694ZM18.1594 1.64653C9.03983 1.64653 1.64694 9.03943 1.64694 18.159H2.04694C2.04694 9.26034 9.26075 2.04653 18.1594 2.04653V1.64653ZM34.6719 18.159C34.6719 9.03943 27.279 1.64653 18.1594 1.64653V2.04653C27.0581 2.04653 34.2719 9.26034 34.2719 18.159H34.6719ZM72.5344 89.0465C81.654 89.0465 89.0469 81.6536 89.0469 72.534H88.6469C88.6469 81.4327 81.4331 88.6465 72.5344 88.6465V89.0465ZM56.0219 72.534C56.0219 81.6536 63.4148 89.0465 72.5344 89.0465V88.6465C63.6357 88.6465 56.4219 81.4327 56.4219 72.534H56.0219ZM72.5344 56.0215C63.4148 56.0215 56.0219 63.4144 56.0219 72.534H56.4219C56.4219 63.6353 63.6357 56.4215 72.5344 56.4215V56.0215ZM89.0469 72.534C89.0469 63.4144 81.654 56.0215 72.5344 56.0215V56.4215C81.4331 56.4215 88.6469 63.6353 88.6469 72.534H89.0469Z" fill="url(#paint2_linear_745_1161)" fill-opacity="0.1" mask="url(#path-2-inside-1_745_1161)"/>
</g>
<defs>
<filter id="filter0_bi_745_1161" x="-3" y="-3" width="96.6914" height="96.6909" filterUnits="userSpaceOnUse" color-interpolation-filters="sRGB">
<feFlood flood-opacity="0" result="BackgroundImageFix"/>
<feGaussianBlur in="BackgroundImageFix" stdDeviation="1.5"/>
<feComposite in2="SourceAlpha" operator="in" result="effect1_backgroundBlur_745_1161"/>
<feBlend mode="normal" in="SourceGraphic" in2="effect1_backgroundBlur_745_1161" result="shape"/>
<feColorMatrix in="SourceAlpha" type="matrix" values="0 0 0 0 0 0 0 0 0 0 0 0 0 0 0 0 0 0 127 0" result="hardAlpha"/>
<feOffset dy="0.5"/>
<feGaussianBlur stdDeviation="1"/>
<feComposite in2="hardAlpha" operator="arithmetic" k2="-1" k3="1"/>
<feColorMatrix type="matrix" values="0 0 0 0 1 0 0 0 0 1 0 0 0 0 1 0 0 0 0.4 0"/>
<feBlend mode="normal" in2="shape" result="effect2_innerShadow_745_1161"/>
</filter>
<linearGradient id="paint0_linear_745_1161" x1="20.1393" y1="28.8467" x2="80.0939" y2="37.1737" gradientUnits="userSpaceOnUse">
<stop stop-color="#FFF612"/>
<stop offset="1" stop-color="#FFFEDB"/>
</linearGradient>
<linearGradient id="paint1_linear_745_1161" x1="3.7788" y1="18.1382" x2="102.64" y2="31.8689" gradientUnits="userSpaceOnUse">
<stop stop-color="#FE82DB"/>
<stop offset="1" stop-color="#68E4FF"/>
</linearGradient>
<linearGradient id="paint2_linear_745_1161" x1="2.8341" y1="4.12233" x2="90.6911" y2="4.12233" gradientUnits="userSpaceOnUse">
<stop stop-color="#FD84DC"/>
<stop offset="1" stop-color="#7FD6FA"/>
</linearGradient>
</defs>
</svg>
