<svg width="30" height="30" viewBox="0 0 30 30" fill="none" xmlns="http://www.w3.org/2000/svg">
<path fill-rule="evenodd" clip-rule="evenodd" d="M20.8237 2.5C24.9862 2.5 28.125 5.89625 28.125 10.4V18.985C28.125 21.29 27.31 23.3725 25.8288 24.85C24.5 26.1737 22.7763 26.875 20.8438 26.875H8.5275C6.59875 26.875 4.87625 26.175 3.54625 24.85C2.065 23.3725 1.25 21.29 1.25 18.985V10.4C1.25 5.89625 4.38875 2.5 8.55125 2.5H20.8237ZM20.8237 4.375H8.55125C5.4075 4.375 3.125 6.90875 3.125 10.4V18.985C3.125 20.7887 3.745 22.4 4.87 23.5212C5.84 24.49 7.10625 25 8.53125 25H20.8237C20.8263 24.9975 20.8363 25 20.8438 25C22.27 25 23.535 24.49 24.505 23.5212C25.6313 22.4 26.25 20.7887 26.25 18.985V10.4C26.25 6.90875 23.9675 4.375 20.8237 4.375ZM22.7937 10.161C23.12 10.5623 23.0588 11.1522 22.6575 11.4797L17.1025 15.9948C16.4 16.5522 15.56 16.831 14.7213 16.831C13.885 16.831 13.0513 16.5547 12.3538 16.0022L6.7475 11.4822C6.34375 11.1572 6.28125 10.566 6.605 10.1635C6.93125 9.76225 7.52125 9.6985 7.92375 10.0222L13.525 14.5372C14.2287 15.0947 15.22 15.0948 15.9288 14.5323L21.4737 10.0248C21.8762 9.696 22.4662 9.7585 22.7937 10.161Z" fill="url(#paint0_linear_745_638)"/>
<defs>
<linearGradient id="paint0_linear_745_638" x1="1.25" y1="14.6875" x2="28.125" y2="14.6875" gradientUnits="userSpaceOnUse">
<stop stop-color="#02AAB0"/>
<stop offset="1" stop-color="#00CDAC"/>
</linearGradient>
</defs>
</svg>
