<svg width="98" height="87" viewBox="0 0 98 87" fill="none" xmlns="http://www.w3.org/2000/svg">
<rect x="11" y="65" width="76" height="17" rx="1" fill="url(#paint0_linear_745_1159)"/>
<rect x="11" y="33" width="76" height="16" rx="1" fill="url(#paint1_linear_745_1159)"/>
<rect x="11" width="76" height="16" rx="1" fill="url(#paint2_linear_745_1159)"/>
<g filter="url(#filter0_bi_745_1159)">
<path d="M0 10.4667C0 7.44751 2.43756 5 5.44444 5H92.5556C95.5624 5 98 7.44751 98 10.4667V15.9333C98 18.9525 95.5624 21.4 92.5556 21.4H5.44445C2.43756 21.4 0 18.9525 0 15.9333V10.4667Z" fill="#F1F1F1" fill-opacity="0.1"/>
<path d="M0 10.4667C0 7.44751 2.43756 5 5.44444 5H92.5556C95.5624 5 98 7.44751 98 10.4667V15.9333C98 18.9525 95.5624 21.4 92.5556 21.4H5.44445C2.43756 21.4 0 18.9525 0 15.9333V10.4667Z" fill="url(#paint3_linear_745_1159)" fill-opacity="0.2"/>
<path d="M0 43.2667C0 40.2475 2.43756 37.8 5.44444 37.8H92.5556C95.5624 37.8 98 40.2475 98 43.2667V48.7333C98 51.7525 95.5624 54.2 92.5556 54.2H5.44445C2.43756 54.2 0 51.7525 0 48.7333V43.2667Z" fill="#F1F1F1" fill-opacity="0.1"/>
<path d="M0 43.2667C0 40.2475 2.43756 37.8 5.44444 37.8H92.5556C95.5624 37.8 98 40.2475 98 43.2667V48.7333C98 51.7525 95.5624 54.2 92.5556 54.2H5.44445C2.43756 54.2 0 51.7525 0 48.7333V43.2667Z" fill="url(#paint4_linear_745_1159)" fill-opacity="0.2"/>
<path d="M0 76.0667C0 73.0475 2.43756 70.6 5.44444 70.6H92.5556C95.5624 70.6 98 73.0475 98 76.0667V81.5333C98 84.5525 95.5624 87 92.5556 87H5.44445C2.43756 87 0 84.5525 0 81.5333V76.0667Z" fill="#F1F1F1" fill-opacity="0.1"/>
<path d="M0 76.0667C0 73.0475 2.43756 70.6 5.44444 70.6H92.5556C95.5624 70.6 98 73.0475 98 76.0667V81.5333C98 84.5525 95.5624 87 92.5556 87H5.44445C2.43756 87 0 84.5525 0 81.5333V76.0667Z" fill="url(#paint5_linear_745_1159)" fill-opacity="0.2"/>
<path d="M5.44444 5.1H92.5556C95.5068 5.1 97.9 7.50235 97.9 10.4667V15.9333C97.9 18.8976 95.5068 21.3 92.5556 21.3H5.44445C2.49318 21.3 0.1 18.8976 0.1 15.9333V10.4667C0.1 7.50235 2.49317 5.1 5.44444 5.1ZM5.44444 37.9H92.5556C95.5068 37.9 97.9 40.3024 97.9 43.2667V48.7333C97.9 51.6976 95.5068 54.1 92.5556 54.1H5.44445C2.49318 54.1 0.1 51.6976 0.1 48.7333V43.2667C0.1 40.3024 2.49317 37.9 5.44444 37.9ZM5.44444 70.7H92.5556C95.5068 70.7 97.9 73.1024 97.9 76.0667V81.5333C97.9 84.4976 95.5068 86.9 92.5556 86.9H5.44445C2.49318 86.9 0.1 84.4976 0.1 81.5333V76.0667C0.1 73.1024 2.49317 70.7 5.44444 70.7Z" stroke="url(#paint6_linear_745_1159)" stroke-opacity="0.1" stroke-width="0.2"/>
</g>
<defs>
<filter id="filter0_bi_745_1159" x="-3" y="2" width="104" height="88" filterUnits="userSpaceOnUse" color-interpolation-filters="sRGB">
<feFlood flood-opacity="0" result="BackgroundImageFix"/>
<feGaussianBlur in="BackgroundImageFix" stdDeviation="1.5"/>
<feComposite in2="SourceAlpha" operator="in" result="effect1_backgroundBlur_745_1159"/>
<feBlend mode="normal" in="SourceGraphic" in2="effect1_backgroundBlur_745_1159" result="shape"/>
<feColorMatrix in="SourceAlpha" type="matrix" values="0 0 0 0 0 0 0 0 0 0 0 0 0 0 0 0 0 0 127 0" result="hardAlpha"/>
<feOffset dy="0.5"/>
<feGaussianBlur stdDeviation="1"/>
<feComposite in2="hardAlpha" operator="arithmetic" k2="-1" k3="1"/>
<feColorMatrix type="matrix" values="0 0 0 0 1 0 0 0 0 1 0 0 0 0 1 0 0 0 0.4 0"/>
<feBlend mode="normal" in2="shape" result="effect2_innerShadow_745_1159"/>
</filter>
<linearGradient id="paint0_linear_745_1159" x1="14.1667" y1="68.4" x2="75.1138" y2="106.243" gradientUnits="userSpaceOnUse">
<stop stop-color="#FFA336"/>
<stop offset="1" stop-color="#FF5858"/>
</linearGradient>
<linearGradient id="paint1_linear_745_1159" x1="14.1667" y1="36.2" x2="73.0034" y2="75.0159" gradientUnits="userSpaceOnUse">
<stop stop-color="#FFA336"/>
<stop offset="1" stop-color="#FF5858"/>
</linearGradient>
<linearGradient id="paint2_linear_745_1159" x1="14.1667" y1="3.2" x2="73.0034" y2="42.0159" gradientUnits="userSpaceOnUse">
<stop stop-color="#FFA336"/>
<stop offset="1" stop-color="#FF5858"/>
</linearGradient>
<linearGradient id="paint3_linear_745_1159" x1="4.08333" y1="21.4" x2="110.053" y2="38.9897" gradientUnits="userSpaceOnUse">
<stop stop-color="#FE82DB"/>
<stop offset="1" stop-color="#68E4FF"/>
</linearGradient>
<linearGradient id="paint4_linear_745_1159" x1="4.08333" y1="21.4" x2="110.053" y2="38.9897" gradientUnits="userSpaceOnUse">
<stop stop-color="#FE82DB"/>
<stop offset="1" stop-color="#68E4FF"/>
</linearGradient>
<linearGradient id="paint5_linear_745_1159" x1="4.08333" y1="21.4" x2="110.053" y2="38.9897" gradientUnits="userSpaceOnUse">
<stop stop-color="#FE82DB"/>
<stop offset="1" stop-color="#68E4FF"/>
</linearGradient>
<linearGradient id="paint6_linear_745_1159" x1="3.0625" y1="8.72727" x2="98" y2="8.72727" gradientUnits="userSpaceOnUse">
<stop stop-color="#FD84DC"/>
<stop offset="1" stop-color="#7FD6FA"/>
</linearGradient>
</defs>
</svg>
