<svg width="30" height="30" viewBox="0 0 30 30" fill="none" xmlns="http://www.w3.org/2000/svg">
<path fill-rule="evenodd" clip-rule="evenodd" d="M20.8015 3.75C24.9353 3.75 28.2978 7.1125 28.2978 11.2475V20.2188C28.2978 24.3525 24.9353 27.7163 20.8015 27.7163H9.99652C5.86277 27.7163 2.49902 24.3525 2.49902 20.2188V11.2475C2.49902 7.1125 5.86277 3.75 9.99652 3.75H20.8015ZM20.8015 5.625H9.99652C6.89652 5.625 4.37402 8.1475 4.37402 11.2475V20.2188C4.37402 23.3188 6.89652 25.8413 9.99652 25.8413H20.8015C23.9015 25.8413 26.4228 23.3188 26.4228 20.2188V19.8688L22.3004 19.8695C19.9291 19.8695 17.9991 17.9408 17.9979 15.5708C17.9979 13.1982 19.9279 11.2682 22.3004 11.267L26.4228 11.2663V11.2475C26.4228 8.1475 23.9015 5.625 20.8015 5.625ZM26.4228 13.1412L22.3004 13.142C20.9616 13.1432 19.8729 14.232 19.8729 15.5695C19.8729 16.9057 20.9629 17.9945 22.3004 17.9945L26.4228 17.9938V13.1412ZM22.8724 14.5545C23.3899 14.5545 23.8099 14.9745 23.8099 15.492C23.8099 16.0095 23.3899 16.4295 22.8724 16.4295H22.4824C21.9649 16.4295 21.5449 16.0095 21.5449 15.492C21.5449 14.9745 21.9649 14.5545 22.4824 14.5545H22.8724ZM15.8553 9.42262C16.3728 9.42262 16.7928 9.84262 16.7928 10.3601C16.7928 10.8776 16.3728 11.2976 15.8553 11.2976H9.10652C8.58902 11.2976 8.16902 10.8776 8.16902 10.3601C8.16902 9.84262 8.58902 9.42262 9.10652 9.42262H15.8553Z" fill="url(#paint0_linear_745_640)"/>
<defs>
<linearGradient id="paint0_linear_745_640" x1="2.49902" y1="15.7331" x2="28.2978" y2="15.7331" gradientUnits="userSpaceOnUse">
<stop stop-color="#02AAB0"/>
<stop offset="1" stop-color="#00CDAC"/>
</linearGradient>
</defs>
</svg>
